# xmcd
#
# Track frame offsets:
#	150
#	20795
#	46007
#	61239
#	79594
#	101719
#	130944
#	147101
#	162643
#	184855
#	207250
#	227954
#
# Disc length: 3418 seconds
#
# Revision: 0
# Processed by: cddbd v1.4PL0 Copyright (c) Steve Scherf et al.
# Submitted via: audiograbber 1.81.02
#
DISCID=a60d580c
DTITLE=John Earl Walker Band - Little Miss Perfect
DYEAR=2002
DGENRE=Blues
TTITLE0=Last Time Out
TTITLE1=Hurricane
TTITLE2=It's Me
TTITLE3=What You Gonna Do
TTITLE4=It's A Shame
TTITLE5=Follow My Heart
TTITLE6=Comin' Home
TTITLE7=She Looks At Me
TTITLE8=You Let Me Down
TTITLE9=Gave Me Your Heart
TTITLE10=Little Miss Perfect
TTITLE11=Can't Let You Be
EXTD=
EXTT0=
EXTT1=
EXTT2=
EXTT3=
EXTT4=
EXTT5=
EXTT6=
EXTT7=
EXTT8=
EXTT9=
EXTT10=
EXTT11=
PLAYORDER=
